<svg
   version="1.1"
   id="svg179"
   width="226.88"
   height="226.88"
   viewBox="0 0 226.88 226.88"
   sodipodi:docname="Spotify_Icon_RGB_Black.svg"
   inkscape:version="1.2.2 (732a01da63, 2022-12-09)"
   xmlns:inkscape="http://www.inkscape.org/namespaces/inkscape"
   xmlns:sodipodi="http://sodipodi.sourceforge.net/DTD/sodipodi-0.dtd"
   xmlns="http://www.w3.org/2000/svg"
   xmlns:svg="http://www.w3.org/2000/svg">
  <defs
     id="defs183" />
  <sodipodi:namedview
     id="namedview181"
     pagecolor="#ffffff"
     bordercolor="#000000"
     borderopacity="0.25"
     inkscape:showpageshadow="2"
     inkscape:pageopacity="0.0"
     inkscape:pagecheckerboard="0"
     inkscape:deskcolor="#d1d1d1"
     showgrid="false"
     inkscape:zoom="3.6891748"
     inkscape:cx="98.124924"
     inkscape:cy="113.57553"
     inkscape:window-width="1920"
     inkscape:window-height="1017"
     inkscape:window-x="-8"
     inkscape:window-y="-8"
     inkscape:window-maximized="1"
     inkscape:current-layer="g185" />
  <g
     inkscape:groupmode="layer"
     inkscape:label="Image"
     id="g185">
    <path
       style="stroke-width:0.32"
       d="m 103.33054,224.76821 c -7.881683,-0.72695 -18.480281,-2.97819 -25.699471,-5.45881 -16.69989,-5.73832 -30.61079,-14.44076 -43.11441,-26.97166 -9.38516,-9.40563 -15.8512,-18.49664 -21.57348,-30.33146 C 3.2207287,141.89829 -0.20894129,119.50679 3.0280187,97.272657 8.7497687,57.970874 35.175659,24.504042 72.130539,9.758375 92.122185,1.781344 115.21173,-0.23205697 136.16118,4.174923 c 17.49198,3.679658 33.42424,11.202046 47.48936,22.422019 4.41486,3.521807 12.99944,12.059948 16.36422,16.275718 14.71114,18.431686 22.94917,38.958177 24.77766,61.73785 0.47303,5.89299 0.2292,17.37336 -0.4864,22.90215 -3.20519,24.76361 -14.3219,47.44026 -31.84856,64.96692 -17.52659,17.52658 -40.0928,28.59165 -64.96692,31.85574 -4.71624,0.61888 -19.30864,0.88035 -24.16,0.43289 z m 57.52875,-58.87479 c 2.70237,-0.75046 4.71125,-3.53839 4.71125,-6.53829 0,-4.09565 -1.74214,-5.67763 -11.78052,-10.69747 -13.01671,-6.50919 -27.10586,-10.484 -43.41948,-12.24944 -5.88282,-0.63663 -23.646301,-0.53753 -30.240001,0.16871 -10.69075,1.14506 -25.46532,3.80107 -27.79725,4.99709 -5.71261,2.92991 -4.64258,11.1492 1.67285,12.84977 1.11366,0.29988 2.0995,0.1858 6.91166,-0.79979 29.584325,-6.05922 54.632791,-5.02728 76.884651,3.16748 3.85279,1.41888 10.94729,4.79038 16.82154,7.99405 2.80434,1.52943 3.97093,1.73671 6.2353,1.10789 z m 13.90301,-30.26374 c 3.88754,-1.85109 5.78048,-6.34442 4.39087,-10.42271 -0.66004,-1.9371 -2.31331,-3.81286 -4.55326,-5.16599 -29.83259,-18.0216 -72.61284,-25.015993 -109.669371,-17.9305 -6.35295,1.21473 -15.1813,3.5704 -16.68634,4.45242 -2.68552,1.57382 -4.29692,4.47357 -4.24932,7.64676 0.0648,4.31749 3.41925,7.95794 7.7428,8.40287 1.3071,0.1345 2.5824,-0.078 5.83286,-0.97192 17.12943,-4.71084 37.333083,-5.96913 56.800001,-3.53753 18.32887,2.28946 36.7284,8.21952 50.28495,16.20654 4.6253,2.72506 6.61134,2.98446 10.10681,1.32006 z m 14.64824,-34.43769 c 2.05674,-1.06108 4.09379,-3.170953 5.0199,-5.199333 1.11224,-2.43602 1.04537,-6.09836 -0.15602,-8.54483 -1.25846,-2.56272 -3.24365,-4.18961 -8.57591,-7.0281 C 166.84074,70.381284 143.96509,64.212506 116.29054,61.702778 108.44589,60.99137 87.651239,60.894743 80.130539,61.534756 c -13.5788,1.155555 -26.25998,3.366528 -35.26769,6.148944 -2.734,0.844509 -3.33514,1.170515 -4.99916,2.711101 -2.49391,2.308928 -3.37223,4.260912 -3.38276,7.517856 -0.006,1.92395 0.15807,2.7585 0.82827,4.20735 1.52592,3.29876 4.72297,5.68354 8.31411,6.20174 1.19833,0.17293 2.61849,-0.0701 7.2,-1.23225 9.71402,-2.464 16.67815,-3.64362 26.68421,-4.51993 33.603111,-2.94288 69.578171,2.74962 93.656421,14.81968 2.08696,1.04616 4.58019,2.37 5.54053,2.941873 2.57863,1.53555 3.98312,1.91075 6.70607,1.79146 1.80747,-0.0792 2.79502,-0.30893 4,-0.93059 z"
       id="path189" />
  </g>
</svg>
